Coordinates
version=1
nRows=22
nColumns=33
inDegrees=yes

Units are S.I. units (second, meters, Newtons, ...)
Angles are in degrees.

endheader
time	ground_thorax_rot_x	ground_thorax_rot_y	ground_thorax_rot_z	ground_thorax_tx	ground_thorax_ty	ground_thorax_tz	clav_prot_r	clav_elev_r	scapula_abduction_r	scapula_elevation_r	scapula_upward_rot_r	scapula_winging_r	shoulder_elv_r	plane_of_elev_r	axial_rot_r	elbow_flexion_r	pro_sup_r	wrist_flex_r	wrist_dev_r	clav_prot_l	clav_elev_l	scapula_abduction_l	scapula_elevation_l	scapula_upward_rot_l	scapula_winging_l	shoulder_elv_l	plane_of_elev_l	axial_rot_l	elbow_flexion_l	pro_sup_l	wrist_flex_l	wrist_dev_l	
6.3500	-25.828308	-30.456351	46.180959	-83.889802	783.298894	6.947768	7.147669	-45.000000	37.866876	-45.000000	-39.564295	-2617.082293	-2635.284429	149.443698	-111.234796	730.841454	30.952207	18.206198	9.726261	14.415028	37.497010	-32.244346	-45.000000	-45.000000	1516.464051	-2617.364180	135.387642	-180.000000	9.503784	42.515096	8.897072	-22.924375	
6.3600	-26.093937	-30.121707	45.676519	-86.273120	783.884261	6.677245	7.116322	-45.000000	38.001627	-45.000000	-39.127983	-2617.198685	-2635.125813	149.373586	-111.347131	730.949489	31.102050	18.276942	9.651938	14.458344	37.522802	-32.457287	-45.000000	-45.000000	1516.651871	-2617.192247	135.323810	-180.000000	9.648654	42.263729	8.815700	-22.937989	
6.3700	-26.363703	-29.780831	45.167259	-88.709238	784.493726	6.422293	7.084763	-45.000000	38.136584	-45.000000	-38.683816	-2617.319179	-2634.967590	149.307358	-111.453583	731.055038	31.260404	18.348639	9.579483	14.499705	37.548924	-32.669658	-45.000000	-45.000000	1516.842356	-2617.020086	135.260917	-180.000000	9.789044	42.010364	8.733045	-22.946607	
6.3800	-26.630300	-29.439784	44.664284	-91.194606	785.126570	6.183746	7.054334	-45.000000	38.268521	-45.000000	-38.250219	-2617.443936	-2634.802330	149.240995	-111.555387	731.168968	31.427117	18.422989	9.507586	14.542538	37.577094	-32.874174	-45.000000	-45.000000	1517.036557	-2616.849642	135.199763	-180.000000	9.925655	41.754134	8.648512	-22.948620	
6.3900	-26.897928	-29.095209	44.161447	-93.725479	785.782546	5.962112	7.024840	-45.000000	38.397630	-45.000000	-37.823843	-2617.570300	-2634.635469	149.174087	-111.662346	731.282065	31.602507	18.497796	9.437408	14.582437	37.602378	-33.077302	-45.000000	-45.000000	1517.236393	-2616.680788	135.137370	-180.000000	10.056374	41.498144	8.564313	-22.945664	
6.4000	-27.162181	-28.749771	43.664157	-96.297886	786.461808	5.757784	6.996718	-45.000000	38.521203	-45.000000	-37.411947	-2617.697306	-2634.461934	149.103493	-111.775889	731.399754	31.785320	18.573464	9.367459	14.621602	37.627079	-33.274162	-45.000000	-45.000000	1517.440707	-2616.513772	135.076291	-180.000000	10.184735	41.244908	8.479276	-22.937928	
6.4100	-27.426226	-28.401682	43.167923	-98.907483	787.164844	5.571201	6.969115	-45.000000	38.639677	-45.000000	-37.008799	-2617.824453	-2634.285379	149.030003	-111.898476	731.517389	31.973641	18.648306	9.296807	14.657644	37.649706	-33.468453	-45.000000	-45.000000	1517.649575	-2616.348923	135.015849	-180.000000	10.309077	40.998857	8.393147	-22.926457	
6.4200	-27.691222	-28.048917	42.671223	-101.549478	787.892463	5.402963	6.940567	-45.000000	38.753605	-45.000000	-36.606791	-2617.951749	-2634.107201	148.956177	-112.030289	731.631098	32.163921	18.720977	9.224883	14.691339	37.670111	-33.661373	-45.000000	-45.000000	1517.861008	-2616.186268	134.957649	-180.000000	10.432033	40.762305	8.303445	-22.912069	
6.4300	-27.963948	-27.688015	42.169079	-104.218553	788.645806	5.253806	6.908794	-45.000000	38.863903	-45.000000	-36.198729	-2618.078959	-2633.935568	148.885914	-112.172172	731.731172	32.350532	18.788646	9.150678	14.720548	37.686511	-33.860915	-45.000000	-45.000000	1518.076190	-2616.025202	134.899273	-180.000000	10.547840	40.536584	8.209436	-22.895107	
6.4400	-28.237157	-27.323268	41.669961	-106.908966	789.426334	5.124514	6.874939	-45.000000	38.971169	-45.000000	-35.794657	-2618.206341	-2633.762767	148.817468	-112.321912	731.826230	32.525037	18.852964	9.073305	14.750216	37.702224	-34.058434	-45.000000	-45.000000	1518.292035	-2615.865818	134.843255	-180.000000	10.658573	40.315535	8.107866	-22.874224	
6.4500	-28.507340	-26.959921	41.180423	-109.614894	790.235717	5.015754	6.840988	-45.000000	39.076155	-45.000000	-35.404475	-2618.334968	-2633.586606	148.749913	-112.477652	731.920741	32.678175	18.914467	8.991933	14.780711	37.717548	-34.250122	-45.000000	-45.000000	1518.507937	-2615.707139	134.789659	-180.000000	10.759729	40.088535	7.999402	-22.848272	
6.4600	-28.767525	-26.603132	40.706005	-112.331028	791.075556	4.927990	6.809066	-45.000000	39.179059	-45.000000	-35.033152	-2618.464280	-2633.400436	148.681174	-112.640962	732.020290	32.799364	18.974564	8.908106	14.814786	37.734168	-34.428560	-45.000000	-45.000000	1518.721032	-2615.549195	134.741732	-180.000000	10.853477	39.838990	7.885134	-22.816488	
6.4700	-29.021051	-26.252206	40.243961	-115.053529	791.947091	4.861398	6.779362	-45.000000	39.279223	-45.000000	-34.677768	-2618.594713	-2633.209636	148.611908	-112.813630	732.117580	32.877630	19.031293	8.823459	14.848351	37.749290	-34.598833	-45.000000	-45.000000	1518.934258	-2615.392305	134.696569	-180.000000	10.936119	39.550297	7.770629	-22.779760	
6.4800	-29.265766	-25.907849	39.793450	-117.780695	792.850858	4.815876	6.752653	-45.000000	39.375153	-45.000000	-34.337518	-2618.725184	-2633.012477	148.539916	-112.996181	732.211514	32.900532	19.084351	8.741417	14.881906	37.763046	-34.758742	-45.000000	-45.000000	1519.147174	-2615.237384	134.655528	-180.000000	11.010476	39.204930	7.660012	-22.738631	
6.4900	-29.507891	-25.565513	39.349625	-120.513337	793.786568	4.790965	6.726682	-45.000000	39.466107	-45.000000	-34.004947	-2618.856173	-2632.815190	148.469384	-113.187303	732.293038	32.857076	19.131521	8.665345	14.911906	37.774821	-34.915622	-45.000000	-45.000000	1519.362089	-2615.085156	134.616609	-180.000000	11.074266	38.791151	7.558609	-22.694243	
6.5000	-29.748871	-25.222346	38.908406	-123.254023	794.752977	4.785865	6.700851	-45.000000	39.551944	-45.000000	-33.675614	-2618.986834	-2632.618639	148.400277	-113.384837	732.359674	32.736466	19.172319	8.599352	14.938789	37.784644	-35.071709	-45.000000	-45.000000	1519.578815	-2614.935620	134.579724	-180.000000	11.128216	38.301316	7.469096	-22.646909	
6.5100	-29.995091	-24.872819	38.465200	-126.006572	795.748257	4.799310	6.671795	-45.000000	39.632011	-45.000000	-33.342027	-2619.117719	-2632.428025	148.337594	-113.587205	732.404460	32.532380	19.205541	8.546001	14.959698	37.793081	-35.234544	-45.000000	-45.000000	1519.800133	-2614.789556	134.542550	-180.000000	11.172903	37.737752	7.392885	-22.598475	
6.5200	-30.239962	-24.521480	38.025139	-128.774627	796.770200	4.829546	6.643268	-45.000000	39.707721	-45.000000	-33.020114	-2619.248797	-2632.235472	148.275820	-113.786681	732.439202	32.240126	19.234307	8.507135	14.979328	37.799717	-35.395887	-45.000000	-45.000000	1520.022781	-2614.646056	134.505867	-180.000000	11.208453	37.104982	7.328287	-22.547753	
6.5300	-30.482801	-24.169976	37.587783	-131.560948	797.816689	4.874269	6.616239	-45.000000	39.779112	-45.000000	-32.711833	-2619.379476	-2632.041164	148.214702	-113.980393	732.465256	31.860479	19.259970	8.483815	14.998049	37.803267	-35.553303	-45.000000	-45.000000	1520.245025	-2614.505160	134.470368	-180.000000	11.235153	36.413458	7.273892	-22.495592	
6.5400	-30.719081	-23.822098	37.154826	-134.366652	798.885836	4.930822	6.594586	-45.000000	39.847107	-45.000000	-32.428387	-2619.509734	-2631.842007	148.148237	-114.162673	732.490766	31.397185	19.284892	8.474638	15.018489	37.800790	-35.701181	-45.000000	-45.000000	1520.464651	-2614.366665	134.435282	-180.000000	11.251775	35.673906	7.228038	-22.441634	
6.5500	-30.951707	-23.476167	36.722014	-137.191516	799.976199	4.996327	6.576023	-45.000000	39.910425	-45.000000	-32.161769	-2619.638932	-2631.642160	148.078784	-114.334606	732.512415	30.860651	19.309344	8.477008	15.038596	37.793055	-35.842009	-45.000000	-45.000000	1520.682026	-2614.231278	134.401023	-180.000000	11.261670	34.901885	7.188711	-22.388202	
6.5600	-31.178787	-23.132468	36.290396	-140.034011	801.086522	5.067916	6.562427	-45.000000	39.970149	-45.000000	-31.918921	-2619.767321	-2631.440584	148.003925	-114.492348	732.534121	30.263387	19.334347	8.486742	15.058954	37.779299	-35.974289	-45.000000	-45.000000	1520.894967	-2614.098120	134.367099	-180.000000	11.265039	34.110966	7.154245	-22.335566	
